<svg width="1977" height="1507" xmlns="http://www.w3.org/2000/svg" xmlns:xlink="http://www.w3.org/1999/xlink" xml:space="preserve" overflow="hidden"><defs><clipPath id="clip0"><rect x="17" y="13207" width="1977" height="1507"/></clipPath></defs><g clip-path="url(#clip0)" transform="translate(-17 -13207)"><rect x="16.9998" y="13207" width="1977" height="1507" fill="#FFFFFF"/><g><path d="M200.5 13404.5 200.5 14357.5M488.516 13404.5 488.516 14357.5M776.526 13404.5 776.526 14357.5M1063.54 13404.5 1063.54 14357.5M1351.54 13404.5 1351.54 14357.5M1639.55 13404.5 1639.55 14357.5M1927.5 13404.5 1927.5 14357.5" stroke="#D9D9D9" stroke-width="3.4375" stroke-linejoin="round" stroke-miterlimit="10" fill="none"/></g><g><path d="M200.5 14167 1927.5 14167M200.5 13976 1927.5 13976M200.5 13786 1927.5 13786M200.5 13594.9 1927.5 13594.9M200.5 13404.5 1927.5 13404.5" stroke="#D9D9D9" stroke-width="3.4375" stroke-linejoin="round" stroke-miterlimit="10" fill="none"/></g><g><path d="M200.5 14357.5 1927.5 14357.5" stroke="#595959" stroke-width="3.4375" stroke-linejoin="round" stroke-miterlimit="10" fill="none" fill-rule="evenodd"/></g><g><path d="M200.5 14357.5 200.5 14369.5M488.516 14357.5 488.516 14369.5M776.526 14357.5 776.526 14369.5M1063.54 14357.5 1063.54 14369.5M1351.54 14357.5 1351.54 14369.5M1639.55 14357.5 1639.55 14369.5M1927.5 14357.5 1927.5 14369.5" stroke="#595959" stroke-width="3.4375" stroke-linejoin="round" stroke-miterlimit="10" fill="none"/></g><g><path d="M200 13630.4 272.009 13622.4 344.011 13536 416.014 13626.4 488.016 13542.4 560.018 13674.4 632.021 13599.4 704.023 13610.4 776.025 13780 848.028 13715.5 920.03 13611.4 992.033 13575.4 1064.03 13558.4 1136.04 13573.4 1208.04 13549.4 1280.04 13586.4 1352.04 13589.4 1424.05 13641.4 1496.05 13602.4 1567.05 13617.4 1639.05 13622.4 1711.06 13658.4 1783.06 13640.4 1855.06 13725.5 1927 13654.4" stroke="#57A0A2" stroke-width="10.3125" stroke-linecap="round" stroke-linejoin="round" stroke-miterlimit="10" fill="none"/></g><g><path d="M200 14124.5 272.009 14095.5 344.011 14034.5 416.014 14077.5 488.016 14113.5 560.018 14075.5 632.021 14079.5 704.023 14077.5 776.025 14223 848.028 14170.5 920.03 14041.5 992.033 14051.5 1064.03 14026.5 1136.04 14018.5 1208.04 13974 1280.04 13997.5 1352.04 14051.5 1424.05 14082.5 1496.05 14032.5 1567.05 14051.5 1639.05 14069.5 1711.06 14065.5 1783.06 14050.5 1855.06 14084.5 1927 14084.5" stroke="#D67D00" stroke-width="10.3125" stroke-linecap="round" stroke-linejoin="round" stroke-miterlimit="10" fill="none"/></g><g><path d="M200 14282.5 272.009 14281.5 344.011 14262.5 416.014 14257.5 488.016 14300.5 560.018 14263.5 632.021 14266.5 704.023 14295.5 776.025 14318 848.028 14303.5 920.03 14269.5 992.033 14268.5 1064.03 14273.5 1136.04 14260.5 1208.04 14235 1280.04 14250.5 1352.04 14258.5 1424.05 14251.5 1496.05 14274.5 1567.05 14240.5 1639.05 14281.5 1711.06 14280.5 1783.06 14259.5 1855.06 14272.5 1927 14250.5" stroke="#29235C" stroke-width="10.3125" stroke-linecap="round" stroke-linejoin="round" stroke-miterlimit="10" fill="none"/></g><g><path d="M200 13977.5 272.009 13967.5 344.011 13917.5 416.014 13940.5 488.016 13978.5 560.018 13886 632.021 13981.5 704.023 13896.5 776.025 14134 848.028 14048.5 920.03 13979.5 992.033 14001.5 1064.03 13968.5 1136.04 13980.5 1208.04 13970.5 1280.04 13930.5 1352.04 13984.5 1424.05 13998.5 1496.05 13958.5 1567.05 14001.5 1639.05 13948.5 1711.06 13937.5 1783.06 13927.5 1855.06 13972.5 1927 13998.5" stroke="#850018" stroke-width="10.3125" stroke-linecap="round" stroke-linejoin="round" stroke-miterlimit="10" fill="none"/></g><g><text font-family="Arial,Arial_MSFontService,sans-serif" font-weight="400" font-size="41" transform="matrix(1 0 0 1 162.586 14419)">Apr</text></g><g><text font-family="Arial,Arial_MSFontService,sans-serif" font-weight="400" font-size="41" transform="matrix(1 0 0 1 177.482 14467)">to</text></g><g><text font-family="Arial,Arial_MSFontService,sans-serif" font-weight="400" font-size="41" transform="matrix(1 0 0 1 161.429 14514)">Jun</text></g><g><text font-family="Arial,Arial_MSFontService,sans-serif" font-weight="400" font-size="41" transform="matrix(1 0 0 1 171.741 14561)">18</text></g><g><text font-family="Arial,Arial_MSFontService,sans-serif" font-weight="400" font-size="41" transform="matrix(1 0 0 1 450.395 14419)">Apr</text></g><g><text font-family="Arial,Arial_MSFontService,sans-serif" font-weight="400" font-size="41" transform="matrix(1 0 0 1 465.292 14467)">to</text></g><g><text font-family="Arial,Arial_MSFontService,sans-serif" font-weight="400" font-size="41" transform="matrix(1 0 0 1 449.238 14514)">Jun</text></g><g><text font-family="Arial,Arial_MSFontService,sans-serif" font-weight="400" font-size="41" transform="matrix(1 0 0 1 459.551 14561)">19</text></g><g><text font-family="Arial,Arial_MSFontService,sans-serif" font-weight="400" font-size="41" transform="matrix(1 0 0 1 738.205 14419)">Apr</text></g><g><text font-family="Arial,Arial_MSFontService,sans-serif" font-weight="400" font-size="41" transform="matrix(1 0 0 1 753.101 14467)">to</text></g><g><text font-family="Arial,Arial_MSFontService,sans-serif" font-weight="400" font-size="41" transform="matrix(1 0 0 1 737.048 14514)">Jun</text></g><g><text font-family="Arial,Arial_MSFontService,sans-serif" font-weight="400" font-size="41" transform="matrix(1 0 0 1 747.36 14561)">20</text></g><g><text font-family="Arial,Arial_MSFontService,sans-serif" font-weight="400" font-size="41" transform="matrix(1 0 0 1 1026.01 14419)">Apr</text></g><g><text font-family="Arial,Arial_MSFontService,sans-serif" font-weight="400" font-size="41" transform="matrix(1 0 0 1 1040.91 14467)">to</text></g><g><text font-family="Arial,Arial_MSFontService,sans-serif" font-weight="400" font-size="41" transform="matrix(1 0 0 1 1024.86 14514)">Jun</text></g><g><text font-family="Arial,Arial_MSFontService,sans-serif" font-weight="400" font-size="41" transform="matrix(1 0 0 1 1035.17 14561)">21</text></g><g><text font-family="Arial,Arial_MSFontService,sans-serif" font-weight="400" font-size="41" transform="matrix(1 0 0 1 1313.82 14419)">Apr</text></g><g><text font-family="Arial,Arial_MSFontService,sans-serif" font-weight="400" font-size="41" transform="matrix(1 0 0 1 1328.72 14467)">to</text></g><g><text font-family="Arial,Arial_MSFontService,sans-serif" font-weight="400" font-size="41" transform="matrix(1 0 0 1 1312.67 14514)">Jun</text></g><g><text font-family="Arial,Arial_MSFontService,sans-serif" font-weight="400" font-size="41" transform="matrix(1 0 0 1 1322.98 14561)">22</text></g><g><text font-family="Arial,Arial_MSFontService,sans-serif" font-weight="400" font-size="41" transform="matrix(1 0 0 1 1601.63 14419)">Apr</text></g><g><text font-family="Arial,Arial_MSFontService,sans-serif" font-weight="400" font-size="41" transform="matrix(1 0 0 1 1616.53 14467)">to</text></g><g><text font-family="Arial,Arial_MSFontService,sans-serif" font-weight="400" font-size="41" transform="matrix(1 0 0 1 1600.48 14514)">Jun</text></g><g><text font-family="Arial,Arial_MSFontService,sans-serif" font-weight="400" font-size="41" transform="matrix(1 0 0 1 1610.79 14561)">23</text></g><g><text font-family="Arial,Arial_MSFontService,sans-serif" font-weight="400" font-size="41" transform="matrix(1 0 0 1 1889.44 14419)">Apr</text></g><g><text font-family="Arial,Arial_MSFontService,sans-serif" font-weight="400" font-size="41" transform="matrix(1 0 0 1 1904.34 14467)">to</text></g><g><text font-family="Arial,Arial_MSFontService,sans-serif" font-weight="400" font-size="41" transform="matrix(1 0 0 1 1888.29 14514)">Jun</text></g><g><text font-family="Arial,Arial_MSFontService,sans-serif" font-weight="400" font-size="41" transform="matrix(1 0 0 1 1898.6 14561)">24</text></g><g><text font-family="Arial,Arial_MSFontService,sans-serif" font-weight="400" font-size="41" transform="matrix(1 0 0 1 1898.61 14609)">[p]</text></g><g><text font-family="Arial,Arial_MSFontService,sans-serif" font-weight="400" font-size="46" transform="matrix(1 0 0 1 135.483 14372)">0</text></g><g><text font-family="Arial,Arial_MSFontService,sans-serif" font-weight="400" font-size="46" transform="matrix(1 0 0 1 84.5167 14182)">200</text></g><g><text font-family="Arial,Arial_MSFontService,sans-serif" font-weight="400" font-size="46" transform="matrix(1 0 0 1 84.5167 13991)">400</text></g><g><text font-family="Arial,Arial_MSFontService,sans-serif" font-weight="400" font-size="46" transform="matrix(1 0 0 1 84.5167 13801)">600</text></g><g><text font-family="Arial,Arial_MSFontService,sans-serif" font-weight="400" font-size="46" transform="matrix(1 0 0 1 84.5167 13610)">800</text></g><g><text font-family="Arial,Arial_MSFontService,sans-serif" font-weight="400" font-size="46" transform="matrix(1 0 0 1 46.2917 13419)">1,000</text></g><g><text font-family="Arial,Arial_MSFontService,sans-serif" font-weight="700" font-size="46" transform="matrix(1 0 0 1 685.892 14685)">Quarter the transaction was effective</text></g><g><text font-family="Arial,Arial_MSFontService,sans-serif" font-weight="700" font-size="46" transform="matrix(1 0 0 1 49.5 13282)">Number of </text></g><g><text font-family="Arial,Arial_MSFontService,sans-serif" font-weight="700" font-size="46" transform="matrix(1 0 0 1 49.5 13335)">transactions</text></g><g><text font-family="Arial,Arial_MSFontService,sans-serif" font-weight="400" font-size="46" transform="matrix(1 0 0 1 449.715 13509)">Non</text></g><g><text font-family="Arial,Arial_MSFontService,sans-serif" font-weight="400" font-size="46" transform="matrix(1 0 0 1 533.773 13509)">-</text></g><g><text font-family="Arial,Arial_MSFontService,sans-serif" font-weight="400" font-size="46" transform="matrix(1 0 0 1 549.036 13509)">rental value: Up to and including £250,000</text></g><g><text font-family="Arial,Arial_MSFontService,sans-serif" font-weight="400" font-size="46" transform="matrix(1 0 0 1 1351.78 13912)">Rental value</text></g><g><text font-family="Arial,Arial_MSFontService,sans-serif" font-weight="400" font-size="46" transform="matrix(1 0 0 1 1094.08 14331)">Non</text></g><g><text font-family="Arial,Arial_MSFontService,sans-serif" font-weight="400" font-size="46" transform="matrix(1 0 0 1 1178.14 14331)">-</text></g><g><text font-family="Arial,Arial_MSFontService,sans-serif" font-weight="400" font-size="46" transform="matrix(1 0 0 1 1193.4 14331)">rental value: £1m+</text></g><g><text font-family="Arial,Arial_MSFontService,sans-serif" font-weight="400" font-size="46" transform="matrix(1 0 0 1 981.852 14110)">Non</text></g><g><text font-family="Arial,Arial_MSFontService,sans-serif" font-weight="400" font-size="46" transform="matrix(1 0 0 1 1065.91 14110)">-</text></g><g><text font-family="Arial,Arial_MSFontService,sans-serif" font-weight="400" font-size="46" transform="matrix(1 0 0 1 1081.17 14110)">rental value: </text></g><g><text font-family="Arial,Arial_MSFontService,sans-serif" font-weight="400" font-size="46" transform="matrix(1 0 0 1 981.852 14163)">£250,001 </text></g><g><text font-family="Arial,Arial_MSFontService,sans-serif" font-weight="400" font-size="46" transform="matrix(1 0 0 1 1185.72 14163)">-</text></g><g><text font-family="Arial,Arial_MSFontService,sans-serif" font-weight="400" font-size="46" transform="matrix(1 0 0 1 1213.72 14163)">£1m</text></g></g></svg>